<svg width="764" height="42" viewBox="0 0 764 42" fill="none" xmlns="http://www.w3.org/2000/svg">
    <g clip-path="url(#clip0_6_303)">
    <path d="M13.4 1.5H0V14.9H13.4V1.5Z" fill="white" fill-opacity="0.2"/>
    <path d="M40.1998 1.5H26.7998V14.9H40.1998V1.5Z" fill="white" fill-opacity="0.2"/>
    <path d="M67.0001 1.5H53.6001V14.9H67.0001V1.5Z" fill="white" fill-opacity="0.2"/>
    <path d="M93.7999 1.5H80.3999V14.9H93.7999V1.5Z" fill="white" fill-opacity="0.2"/>
    <path d="M120.6 1.5H107.2V14.9H120.6V1.5Z" fill="white" fill-opacity="0.2"/>
    <path d="M147.4 1.5H134V14.9H147.4V1.5Z" fill="white" fill-opacity="0.2"/>
    <path d="M174.2 1.5H160.8V14.9H174.2V1.5Z" fill="white" fill-opacity="0.2"/>
    <path d="M201 1.5H187.6V14.9H201V1.5Z" fill="white" fill-opacity="0.2"/>
    <path d="M227.8 1.5H214.4V14.9H227.8V1.5Z" fill="white" fill-opacity="0.2"/>
    <path d="M254.6 1.5H241.2V14.9H254.6V1.5Z" fill="white" fill-opacity="0.2"/>
    <path d="M281.4 1.5H268V14.9H281.4V1.5Z" fill="white" fill-opacity="0.2"/>
    <path d="M308.2 1.5H294.8V14.9H308.2V1.5Z" fill="white" fill-opacity="0.2"/>
    <path d="M335 1.5H321.6V14.9H335V1.5Z" fill="white" fill-opacity="0.2"/>
    <path d="M26.7999 14.8999H13.3999V28.2999H26.7999V14.8999Z" fill="white" fill-opacity="0.2"/>
    <path d="M53.6002 14.8999H40.2002V28.2999H53.6002V14.8999Z" fill="white" fill-opacity="0.2"/>
    <path d="M80.4 14.8999H67V28.2999H80.4V14.8999Z" fill="white" fill-opacity="0.2"/>
    <path d="M107.2 14.8999H93.7998V28.2999H107.2V14.8999Z" fill="white" fill-opacity="0.2"/>
    <path d="M134 14.8999H120.6V28.2999H134V14.8999Z" fill="white" fill-opacity="0.2"/>
    <path d="M160.8 14.8999H147.4V28.2999H160.8V14.8999Z" fill="white" fill-opacity="0.2"/>
    <path d="M187.6 14.8999H174.2V28.2999H187.6V14.8999Z" fill="white" fill-opacity="0.2"/>
    <path d="M214.4 14.8999H201V28.2999H214.4V14.8999Z" fill="white" fill-opacity="0.2"/>
    <path d="M241.2 14.8999H227.8V28.2999H241.2V14.8999Z" fill="white" fill-opacity="0.2"/>
    <path d="M268 14.8999H254.6V28.2999H268V14.8999Z" fill="white" fill-opacity="0.2"/>
    <path d="M294.8 14.8999H281.4V28.2999H294.8V14.8999Z" fill="white" fill-opacity="0.2"/>
    <path d="M321.6 14.8999H308.2V28.2999H321.6V14.8999Z" fill="white" fill-opacity="0.2"/>
    <path d="M13.4 28.2999H0V41.6999H13.4V28.2999Z" fill="white" fill-opacity="0.2"/>
    <path d="M40.1998 28.2999H26.7998V41.6999H40.1998V28.2999Z" fill="white" fill-opacity="0.2"/>
    <path d="M67.0001 28.2999H53.6001V41.6999H67.0001V28.2999Z" fill="white" fill-opacity="0.2"/>
    <path d="M93.7999 28.2999H80.3999V41.6999H93.7999V28.2999Z" fill="white" fill-opacity="0.2"/>
    <path d="M120.6 28.2999H107.2V41.6999H120.6V28.2999Z" fill="white" fill-opacity="0.2"/>
    <path d="M147.4 28.2999H134V41.6999H147.4V28.2999Z" fill="white" fill-opacity="0.2"/>
    <path d="M174.2 28.2999H160.8V41.6999H174.2V28.2999Z" fill="white" fill-opacity="0.2"/>
    <path d="M201 28.2999H187.6V41.6999H201V28.2999Z" fill="white" fill-opacity="0.2"/>
    <path d="M227.8 28.2999H214.4V41.6999H227.8V28.2999Z" fill="white" fill-opacity="0.2"/>
    <path d="M254.6 28.2999H241.2V41.6999H254.6V28.2999Z" fill="white" fill-opacity="0.2"/>
    <path d="M281.4 28.2999H268V41.6999H281.4V28.2999Z" fill="white" fill-opacity="0.2"/>
    <path d="M308.2 28.2999H294.8V41.6999H308.2V28.2999Z" fill="white" fill-opacity="0.2"/>
    <path d="M335 28.2999H321.6V41.6999H335V28.2999Z" fill="white" fill-opacity="0.2"/>
    </g>
    <path d="M361.8 1H348.4V14.4H361.8V1Z" fill="white" fill-opacity="0.2"/>
    <path d="M388.6 1H375.2V14.4H388.6V1Z" fill="white" fill-opacity="0.2"/>
    <path d="M415.4 1H402V14.4H415.4V1Z" fill="white" fill-opacity="0.2"/>
    <path d="M442.2 1H428.8V14.4H442.2V1Z" fill="white" fill-opacity="0.2"/>
    <path d="M469 1H455.6V14.4H469V1Z" fill="white" fill-opacity="0.2"/>
    <path d="M495.8 1H482.4V14.4H495.8V1Z" fill="white" fill-opacity="0.2"/>
    <path d="M522.6 1H509.2V14.4H522.6V1Z" fill="white" fill-opacity="0.2"/>
    <path d="M549.4 1H536V14.4H549.4V1Z" fill="white" fill-opacity="0.2"/>
    <path d="M576.2 1H562.8V14.4H576.2V1Z" fill="white" fill-opacity="0.2"/>
    <path d="M603 1H589.6V14.4H603V1Z" fill="white" fill-opacity="0.2"/>
    <path d="M629.8 1H616.4V14.4H629.8V1Z" fill="white" fill-opacity="0.2"/>
    <path d="M656.6 1H643.2V14.4H656.6V1Z" fill="white" fill-opacity="0.2"/>
    <path d="M348.4 14.3999H335V27.7999H348.4V14.3999Z" fill="white" fill-opacity="0.2"/>
    <path d="M375.2 14.3999H361.8V27.7999H375.2V14.3999Z" fill="white" fill-opacity="0.2"/>
    <path d="M402 14.3999H388.6V27.7999H402V14.3999Z" fill="white" fill-opacity="0.2"/>
    <path d="M428.8 14.3999H415.4V27.7999H428.8V14.3999Z" fill="white" fill-opacity="0.2"/>
    <path d="M455.6 14.3999H442.2V27.7999H455.6V14.3999Z" fill="white" fill-opacity="0.2"/>
    <path d="M482.4 14.3999H469V27.7999H482.4V14.3999Z" fill="white" fill-opacity="0.2"/>
    <path d="M509.2 14.3999H495.8V27.7999H509.2V14.3999Z" fill="white" fill-opacity="0.2"/>
    <path d="M536 14.3999H522.6V27.7999H536V14.3999Z" fill="white" fill-opacity="0.2"/>
    <path d="M562.8 14.3999H549.4V27.7999H562.8V14.3999Z" fill="white" fill-opacity="0.2"/>
    <path d="M589.6 14.3999H576.2V27.7999H589.6V14.3999Z" fill="white" fill-opacity="0.2"/>
    <path d="M616.4 14.3999H603V27.7999H616.4V14.3999Z" fill="white" fill-opacity="0.2"/>
    <path d="M643.2 14.3999H629.8V27.7999H643.2V14.3999Z" fill="white" fill-opacity="0.2"/>
    <path d="M361.8 27.7999H348.4V41.1999H361.8V27.7999Z" fill="white" fill-opacity="0.2"/>
    <path d="M388.6 27.7999H375.2V41.1999H388.6V27.7999Z" fill="white" fill-opacity="0.2"/>
    <path d="M415.4 27.7999H402V41.1999H415.4V27.7999Z" fill="white" fill-opacity="0.2"/>
    <path d="M442.2 27.7999H428.8V41.1999H442.2V27.7999Z" fill="white" fill-opacity="0.2"/>
    <path d="M469 27.7999H455.6V41.1999H469V27.7999Z" fill="white" fill-opacity="0.2"/>
    <path d="M495.8 27.7999H482.4V41.1999H495.8V27.7999Z" fill="white" fill-opacity="0.2"/>
    <path d="M522.6 27.7999H509.2V41.1999H522.6V27.7999Z" fill="white" fill-opacity="0.2"/>
    <path d="M549.4 27.7999H536V41.1999H549.4V27.7999Z" fill="white" fill-opacity="0.2"/>
    <path d="M576.2 27.7999H562.8V41.1999H576.2V27.7999Z" fill="white" fill-opacity="0.2"/>
    <path d="M603 27.7999H589.6V41.1999H603V27.7999Z" fill="white" fill-opacity="0.2"/>
    <path d="M629.8 27.7999H616.4V41.1999H629.8V27.7999Z" fill="white" fill-opacity="0.2"/>
    <path d="M656.6 27.7999H643.2V41.1999H656.6V27.7999Z" fill="white" fill-opacity="0.2"/>
    <path d="M737 0.5H723.6V13.9H737V0.5Z" fill="white" fill-opacity="0.2"/>
    <path d="M737 27.2999H723.6V40.6999H737V27.2999Z" fill="white" fill-opacity="0.2"/>
    <path d="M683.4 0.5H670V13.9H683.4V0.5Z" fill="white" fill-opacity="0.2"/>
    <path d="M710.2 0.5H696.8V13.9H710.2V0.5Z" fill="white" fill-opacity="0.2"/>
    <path d="M670 13.8999H656.6V27.2999H670V13.8999Z" fill="white" fill-opacity="0.2"/>
    <path d="M696.8 13.8999H683.4V27.2999H696.8V13.8999Z" fill="white" fill-opacity="0.2"/>
    <path d="M723.6 13.8999H710.2V27.2999H723.6V13.8999Z" fill="white" fill-opacity="0.2"/>
    <path d="M683.4 27.2999H670V40.6999H683.4V27.2999Z" fill="white" fill-opacity="0.2"/>
    <path d="M710.2 27.2999H696.8V40.6999H710.2V27.2999Z" fill="white" fill-opacity="0.2"/>
    <path d="M763.8 1H750.4V14.4H763.8V1Z" fill="white" fill-opacity="0.2"/>
    <path d="M750.4 14.3999H737V27.7999H750.4V14.3999Z" fill="white" fill-opacity="0.2"/>
    <path d="M763.8 27.7999H750.4V41.1999H763.8V27.7999Z" fill="white" fill-opacity="0.2"/>
    <defs>
    <clipPath id="clip0_6_303">
    <rect width="335" height="41" fill="white" transform="translate(0 1)"/>
    </clipPath>
    </defs>
    </svg>
    