<svg width="508" height="23" viewBox="0 0 508 23" fill="none" xmlns="http://www.w3.org/2000/svg">
	<g clip-path="url(#clip0_15_208)">
	<path d="M7.9035 1.28534H0.967026V8.22181H7.9035V1.28534Z" fill="white" fill-opacity="0.2"/>
	<path d="M21.7763 1.28534H14.8399V8.22181H21.7763V1.28534Z" fill="white" fill-opacity="0.2"/>
	<path d="M35.6494 1.28534H28.713V8.22181H35.6494V1.28534Z" fill="white" fill-opacity="0.2"/>
	<path d="M49.5223 1.28534H42.5858V8.22181H49.5223V1.28534Z" fill="white" fill-opacity="0.2"/>
	<path d="M63.3952 1.28534H56.4588V8.22181H63.3952V1.28534Z" fill="white" fill-opacity="0.2"/>
	<path d="M77.2682 1.28534H70.3317V8.22181H77.2682V1.28534Z" fill="white" fill-opacity="0.2"/>
	<path d="M91.1411 1.28534H84.2047V8.22181H91.1411V1.28534Z" fill="white" fill-opacity="0.2"/>
	<path d="M105.014 1.28534H98.0776V8.22181H105.014V1.28534Z" fill="white" fill-opacity="0.2"/>
	<path d="M118.887 1.28534H111.951V8.22181H118.887V1.28534Z" fill="white" fill-opacity="0.2"/>
	<path d="M132.76 1.28534H125.823V8.22181H132.76V1.28534Z" fill="white" fill-opacity="0.2"/>
	<path d="M146.633 1.28534H139.696V8.22181H146.633V1.28534Z" fill="white" fill-opacity="0.2"/>
	<path d="M160.506 1.28534H153.569V8.22181H160.506V1.28534Z" fill="white" fill-opacity="0.2"/>
	<path d="M174.379 1.28534H167.442V8.22181H174.379V1.28534Z" fill="white" fill-opacity="0.2"/>
	<path d="M14.8399 8.22174H7.90344V15.1582H14.8399V8.22174Z" fill="white" fill-opacity="0.2"/>
	<path d="M28.713 8.22174H21.7765V15.1582H28.713V8.22174Z" fill="white" fill-opacity="0.2"/>
	<path d="M42.5858 8.22174H35.6494V15.1582H42.5858V8.22174Z" fill="white" fill-opacity="0.2"/>
	<path d="M56.4587 8.22174H49.5222V15.1582H56.4587V8.22174Z" fill="white" fill-opacity="0.2"/>
	<path d="M70.3317 8.22174H63.3953V15.1582H70.3317V8.22174Z" fill="white" fill-opacity="0.2"/>
	<path d="M84.2047 8.22174H77.2682V15.1582H84.2047V8.22174Z" fill="white" fill-opacity="0.2"/>
	<path d="M98.0776 8.22174H91.1411V15.1582H98.0776V8.22174Z" fill="white" fill-opacity="0.2"/>
	<path d="M111.951 8.22174H105.014V15.1582H111.951V8.22174Z" fill="white" fill-opacity="0.2"/>
	<path d="M125.823 8.22174H118.887V15.1582H125.823V8.22174Z" fill="white" fill-opacity="0.2"/>
	<path d="M139.696 8.22174H132.76V15.1582H139.696V8.22174Z" fill="white" fill-opacity="0.2"/>
	<path d="M153.569 8.22174H146.633V15.1582H153.569V8.22174Z" fill="white" fill-opacity="0.2"/>
	<path d="M167.442 8.22174H160.506V15.1582H167.442V8.22174Z" fill="white" fill-opacity="0.2"/>
	<path d="M7.9035 15.1582H0.967026V22.0947H7.9035V15.1582Z" fill="white" fill-opacity="0.2"/>
	<path d="M21.7763 15.1582H14.8399V22.0947H21.7763V15.1582Z" fill="white" fill-opacity="0.2"/>
	<path d="M35.6494 15.1582H28.713V22.0947H35.6494V15.1582Z" fill="white" fill-opacity="0.2"/>
	<path d="M49.5223 15.1582H42.5858V22.0947H49.5223V15.1582Z" fill="white" fill-opacity="0.2"/>
	<path d="M63.3952 15.1582H56.4588V22.0947H63.3952V15.1582Z" fill="white" fill-opacity="0.2"/>
	<path d="M77.2682 15.1582H70.3317V22.0947H77.2682V15.1582Z" fill="white" fill-opacity="0.2"/>
	<path d="M91.1411 15.1582H84.2047V22.0947H91.1411V15.1582Z" fill="white" fill-opacity="0.2"/>
	<path d="M105.014 15.1582H98.0776V22.0947H105.014V15.1582Z" fill="white" fill-opacity="0.2"/>
	<path d="M118.887 15.1582H111.951V22.0947H118.887V15.1582Z" fill="white" fill-opacity="0.2"/>
	<path d="M132.76 15.1582H125.823V22.0947H132.76V15.1582Z" fill="white" fill-opacity="0.2"/>
	<path d="M146.633 15.1582H139.696V22.0947H146.633V15.1582Z" fill="white" fill-opacity="0.2"/>
	<path d="M160.506 15.1582H153.569V22.0947H160.506V15.1582Z" fill="white" fill-opacity="0.2"/>
	<path d="M174.379 15.1582H167.442V22.0947H174.379V15.1582Z" fill="white" fill-opacity="0.2"/>
	</g>
	<path d="M188.252 1.02649H181.315V7.96296H188.252V1.02649Z" fill="white" fill-opacity="0.2"/>
	<path d="M202.125 1.02649H195.188V7.96296H202.125V1.02649Z" fill="white" fill-opacity="0.2"/>
	<path d="M215.998 1.02649H209.061V7.96296H215.998V1.02649Z" fill="white" fill-opacity="0.2"/>
	<path d="M229.871 1.02649H222.934V7.96296H229.871V1.02649Z" fill="white" fill-opacity="0.2"/>
	<path d="M243.744 1.02649H236.807V7.96296H243.744V1.02649Z" fill="white" fill-opacity="0.2"/>
	<path d="M257.616 1.02649H250.68V7.96296H257.616V1.02649Z" fill="white" fill-opacity="0.2"/>
	<path d="M271.489 1.02649H264.553V7.96296H271.489V1.02649Z" fill="white" fill-opacity="0.2"/>
	<path d="M285.362 1.02649H278.426V7.96296H285.362V1.02649Z" fill="white" fill-opacity="0.2"/>
	<path d="M299.235 1.02649H292.299V7.96296H299.235V1.02649Z" fill="white" fill-opacity="0.2"/>
	<path d="M313.108 1.02649H306.172V7.96296H313.108V1.02649Z" fill="white" fill-opacity="0.2"/>
	<path d="M326.981 1.02649H320.045V7.96296H326.981V1.02649Z" fill="white" fill-opacity="0.2"/>
	<path d="M340.854 1.02649H333.918V7.96296H340.854V1.02649Z" fill="white" fill-opacity="0.2"/>
	<path d="M181.315 7.96289H174.379V14.8994H181.315V7.96289Z" fill="white" fill-opacity="0.2"/>
	<path d="M195.188 7.96289H188.252V14.8994H195.188V7.96289Z" fill="white" fill-opacity="0.2"/>
	<path d="M209.061 7.96289H202.125V14.8994H209.061V7.96289Z" fill="white" fill-opacity="0.2"/>
	<path d="M222.934 7.96289H215.998V14.8994H222.934V7.96289Z" fill="white" fill-opacity="0.2"/>
	<path d="M236.807 7.96289H229.871V14.8994H236.807V7.96289Z" fill="white" fill-opacity="0.2"/>
	<path d="M250.68 7.96289H243.744V14.8994H250.68V7.96289Z" fill="white" fill-opacity="0.2"/>
	<path d="M264.553 7.96289H257.617V14.8994H264.553V7.96289Z" fill="white" fill-opacity="0.2"/>
	<path d="M278.426 7.96289H271.489V14.8994H278.426V7.96289Z" fill="white" fill-opacity="0.2"/>
	<path d="M292.299 7.96289H285.362V14.8994H292.299V7.96289Z" fill="white" fill-opacity="0.2"/>
	<path d="M306.172 7.96289H299.235V14.8994H306.172V7.96289Z" fill="white" fill-opacity="0.2"/>
	<path d="M320.045 7.96289H313.108V14.8994H320.045V7.96289Z" fill="white" fill-opacity="0.2"/>
	<path d="M333.918 7.96289H326.981V14.8994H333.918V7.96289Z" fill="white" fill-opacity="0.2"/>
	<path d="M188.252 14.8994H181.315V21.8358H188.252V14.8994Z" fill="white" fill-opacity="0.2"/>
	<path d="M202.125 14.8994H195.188V21.8358H202.125V14.8994Z" fill="white" fill-opacity="0.2"/>
	<path d="M215.998 14.8994H209.061V21.8358H215.998V14.8994Z" fill="white" fill-opacity="0.2"/>
	<path d="M229.871 14.8994H222.934V21.8358H229.871V14.8994Z" fill="white" fill-opacity="0.2"/>
	<path d="M243.744 14.8994H236.807V21.8358H243.744V14.8994Z" fill="white" fill-opacity="0.2"/>
	<path d="M257.616 14.8994H250.68V21.8358H257.616V14.8994Z" fill="white" fill-opacity="0.2"/>
	<path d="M271.489 14.8994H264.553V21.8358H271.489V14.8994Z" fill="white" fill-opacity="0.2"/>
	<path d="M285.362 14.8994H278.426V21.8358H285.362V14.8994Z" fill="white" fill-opacity="0.2"/>
	<path d="M299.235 14.8994H292.299V21.8358H299.235V14.8994Z" fill="white" fill-opacity="0.2"/>
	<path d="M313.108 14.8994H306.172V21.8358H313.108V14.8994Z" fill="white" fill-opacity="0.2"/>
	<path d="M326.981 14.8994H320.045V21.8358H326.981V14.8994Z" fill="white" fill-opacity="0.2"/>
	<path d="M340.854 14.8994H333.918V21.8358H340.854V14.8994Z" fill="white" fill-opacity="0.2"/>
	<path d="M382.473 0.767639H375.536V7.70411H382.473V0.767639Z" fill="white" fill-opacity="0.2"/>
	<path d="M382.473 14.6406H375.536V21.577H382.473V14.6406Z" fill="white" fill-opacity="0.2"/>
	<path d="M354.727 0.767639H347.791V7.70411H354.727V0.767639Z" fill="white" fill-opacity="0.2"/>
	<path d="M368.6 0.767639H361.664V7.70411H368.6V0.767639Z" fill="white" fill-opacity="0.2"/>
	<path d="M347.791 7.70404H340.854V14.6405H347.791V7.70404Z" fill="white" fill-opacity="0.2"/>
	<path d="M361.664 7.70404H354.727V14.6405H361.664V7.70404Z" fill="white" fill-opacity="0.2"/>
	<path d="M375.537 7.70404H368.6V14.6405H375.537V7.70404Z" fill="white" fill-opacity="0.2"/>
	<path d="M354.727 14.6406H347.791V21.577H354.727V14.6406Z" fill="white" fill-opacity="0.2"/>
	<path d="M368.6 14.6406H361.664V21.577H368.6V14.6406Z" fill="white" fill-opacity="0.2"/>
	<path d="M396.346 1.02649H389.409V7.96296H396.346V1.02649Z" fill="white" fill-opacity="0.2"/>
	<path d="M389.409 7.96289H382.473V14.8994H389.409V7.96289Z" fill="white" fill-opacity="0.2"/>
	<path d="M396.346 14.8994H389.409V21.8358H396.346V14.8994Z" fill="white" fill-opacity="0.2"/>
	<path d="M410.322 0.50885H403.386V7.44532H410.322V0.50885Z" fill="white" fill-opacity="0.2"/>
	<path d="M424.195 0.50885H417.259V7.44532H424.195V0.50885Z" fill="white" fill-opacity="0.2"/>
	<path d="M438.068 0.50885H431.132V7.44532H438.068V0.50885Z" fill="white" fill-opacity="0.2"/>
	<path d="M451.941 0.50885H445.005V7.44532H451.941V0.50885Z" fill="white" fill-opacity="0.2"/>
	<path d="M403.386 7.44525H396.449V14.3817H403.386V7.44525Z" fill="white" fill-opacity="0.2"/>
	<path d="M417.259 7.44525H410.322V14.3817H417.259V7.44525Z" fill="white" fill-opacity="0.2"/>
	<path d="M431.132 7.44525H424.195V14.3817H431.132V7.44525Z" fill="white" fill-opacity="0.2"/>
	<path d="M445.005 7.44525H438.068V14.3817H445.005V7.44525Z" fill="white" fill-opacity="0.2"/>
	<path d="M410.322 14.3817H403.386V21.3182H410.322V14.3817Z" fill="white" fill-opacity="0.2"/>
	<path d="M424.195 14.3817H417.259V21.3182H424.195V14.3817Z" fill="white" fill-opacity="0.2"/>
	<path d="M438.068 14.3817H431.132V21.3182H438.068V14.3817Z" fill="white" fill-opacity="0.2"/>
	<path d="M451.941 14.3817H445.005V21.3182H451.941V14.3817Z" fill="white" fill-opacity="0.2"/>
	<path d="M493.56 0.25H486.623V7.18647H493.56V0.25Z" fill="white" fill-opacity="0.2"/>
	<path d="M493.56 14.1229H486.623V21.0594H493.56V14.1229Z" fill="white" fill-opacity="0.2"/>
	<path d="M465.814 0.25H458.878V7.18647H465.814V0.25Z" fill="white" fill-opacity="0.2"/>
	<path d="M479.687 0.25H472.751V7.18647H479.687V0.25Z" fill="white" fill-opacity="0.2"/>
	<path d="M458.878 7.1864H451.941V14.1229H458.878V7.1864Z" fill="white" fill-opacity="0.2"/>
	<path d="M472.751 7.1864H465.814V14.1229H472.751V7.1864Z" fill="white" fill-opacity="0.2"/>
	<path d="M486.624 7.1864H479.687V14.1229H486.624V7.1864Z" fill="white" fill-opacity="0.2"/>
	<path d="M465.814 14.1229H458.878V21.0594H465.814V14.1229Z" fill="white" fill-opacity="0.2"/>
	<path d="M479.687 14.1229H472.751V21.0594H479.687V14.1229Z" fill="white" fill-opacity="0.2"/>
	<path d="M507.433 0.50885H500.496V7.44532H507.433V0.50885Z" fill="white" fill-opacity="0.2"/>
	<path d="M500.496 7.44525H493.56V14.3817H500.496V7.44525Z" fill="white" fill-opacity="0.2"/>
	<path d="M507.433 14.3817H500.496V21.3182H507.433V14.3817Z" fill="white" fill-opacity="0.2"/>
	<defs>
	<clipPath id="clip0_15_208">
	<rect width="173.412" height="21.2235" fill="white" transform="translate(0.967026 1.02649)"/>
	</clipPath>
	</defs>
	</svg>
	