<svg width="580" height="22" viewBox="0 0 580 22" fill="none" xmlns="http://www.w3.org/2000/svg">
    <path d="M7.33333 0H0V7.33333H7.33333V0Z" fill="white" fill-opacity="0.2"/>
    <path d="M14.6667 7.33331H7.33333V14.6666H14.6667V7.33331Z" fill="white" fill-opacity="0.2"/>
    <path d="M7.33332 14.6666H-1.52588e-05V22H7.33332V14.6666Z" fill="white" fill-opacity="0.2"/>
    <path d="M198 0H190.667V7.33333H198V0Z" fill="white" fill-opacity="0.2"/>
    <path d="M212.667 0H205.333V7.33333H212.667V0Z" fill="white" fill-opacity="0.2"/>
    <path d="M227.333 0H220V7.33333H227.333V0Z" fill="white" fill-opacity="0.2"/>
    <path d="M242 0H234.667V7.33333H242V0Z" fill="white" fill-opacity="0.2"/>
    <path d="M256.667 0H249.333V7.33333H256.667V0Z" fill="white" fill-opacity="0.2"/>
    <path d="M271.333 0H264V7.33333H271.333V0Z" fill="white" fill-opacity="0.2"/>
    <path d="M286 0H278.667V7.33333H286V0Z" fill="white" fill-opacity="0.2"/>
    <path d="M300.667 0H293.333V7.33333H300.667V0Z" fill="white" fill-opacity="0.2"/>
    <path d="M315.333 0H308V7.33333H315.333V0Z" fill="white" fill-opacity="0.2"/>
    <path d="M330 0H322.667V7.33333H330V0Z" fill="white" fill-opacity="0.2"/>
    <path d="M344.667 0H337.333V7.33333H344.667V0Z" fill="white" fill-opacity="0.2"/>
    <path d="M359.333 0H352V7.33333H359.333V0Z" fill="white" fill-opacity="0.2"/>
    <path d="M205.333 7.33331H198V14.6666H205.333V7.33331Z" fill="white" fill-opacity="0.2"/>
    <path d="M220 7.33331H212.667V14.6666H220V7.33331Z" fill="white" fill-opacity="0.2"/>
    <path d="M234.667 7.33331H227.333V14.6666H234.667V7.33331Z" fill="white" fill-opacity="0.2"/>
    <path d="M249.333 7.33331H242V14.6666H249.333V7.33331Z" fill="white" fill-opacity="0.2"/>
    <path d="M264 7.33331H256.667V14.6666H264V7.33331Z" fill="white" fill-opacity="0.2"/>
    <path d="M278.667 7.33331H271.333V14.6666H278.667V7.33331Z" fill="white" fill-opacity="0.2"/>
    <path d="M293.333 7.33331H286V14.6666H293.333V7.33331Z" fill="white" fill-opacity="0.2"/>
    <path d="M308 7.33331H300.667V14.6666H308V7.33331Z" fill="white" fill-opacity="0.2"/>
    <path d="M322.667 7.33331H315.333V14.6666H322.667V7.33331Z" fill="white" fill-opacity="0.2"/>
    <path d="M337.333 7.33331H330V14.6666H337.333V7.33331Z" fill="white" fill-opacity="0.2"/>
    <path d="M352 7.33331H344.667V14.6666H352V7.33331Z" fill="white" fill-opacity="0.2"/>
    <path d="M366.667 7.33331H359.333V14.6666H366.667V7.33331Z" fill="white" fill-opacity="0.2"/>
    <path d="M198 14.6666H190.667V22H198V14.6666Z" fill="white" fill-opacity="0.2"/>
    <path d="M212.667 14.6666H205.333V22H212.667V14.6666Z" fill="white" fill-opacity="0.2"/>
    <path d="M227.333 14.6666H220V22H227.333V14.6666Z" fill="white" fill-opacity="0.2"/>
    <path d="M242 14.6666H234.667V22H242V14.6666Z" fill="white" fill-opacity="0.2"/>
    <path d="M256.667 14.6666H249.333V22H256.667V14.6666Z" fill="white" fill-opacity="0.2"/>
    <path d="M271.333 14.6666H264V22H271.333V14.6666Z" fill="white" fill-opacity="0.2"/>
    <path d="M286 14.6666H278.667V22H286V14.6666Z" fill="white" fill-opacity="0.2"/>
    <path d="M300.667 14.6666H293.333V22H300.667V14.6666Z" fill="white" fill-opacity="0.2"/>
    <path d="M315.333 14.6666H308V22H315.333V14.6666Z" fill="white" fill-opacity="0.2"/>
    <path d="M330 14.6666H322.667V22H330V14.6666Z" fill="white" fill-opacity="0.2"/>
    <path d="M344.667 14.6666H337.333V22H344.667V14.6666Z" fill="white" fill-opacity="0.2"/>
    <path d="M359.333 14.6666H352V22H359.333V14.6666Z" fill="white" fill-opacity="0.2"/>
    <path d="M22 0H14.6667V7.33333H22V0Z" fill="white" fill-opacity="0.2"/>
    <path d="M36.6667 0H29.3333V7.33333H36.6667V0Z" fill="white" fill-opacity="0.2"/>
    <path d="M51.3333 0H44V7.33333H51.3333V0Z" fill="white" fill-opacity="0.2"/>
    <path d="M66 0H58.6667V7.33333H66V0Z" fill="white" fill-opacity="0.2"/>
    <path d="M80.6667 0H73.3333V7.33333H80.6667V0Z" fill="white" fill-opacity="0.2"/>
    <path d="M95.3333 0H88V7.33333H95.3333V0Z" fill="white" fill-opacity="0.2"/>
    <path d="M110 0H102.667V7.33333H110V0Z" fill="white" fill-opacity="0.2"/>
    <path d="M124.667 0H117.333V7.33333H124.667V0Z" fill="white" fill-opacity="0.2"/>
    <path d="M139.333 0H132V7.33333H139.333V0Z" fill="white" fill-opacity="0.2"/>
    <path d="M154 0H146.667V7.33333H154V0Z" fill="white" fill-opacity="0.2"/>
    <path d="M168.667 0H161.333V7.33333H168.667V0Z" fill="white" fill-opacity="0.2"/>
    <path d="M183.333 0H176V7.33333H183.333V0Z" fill="white" fill-opacity="0.2"/>
    <path d="M29.3333 7.33331H22V14.6666H29.3333V7.33331Z" fill="white" fill-opacity="0.2"/>
    <path d="M44 7.33331H36.6667V14.6666H44V7.33331Z" fill="white" fill-opacity="0.2"/>
    <path d="M58.6667 7.33331H51.3333V14.6666H58.6667V7.33331Z" fill="white" fill-opacity="0.2"/>
    <path d="M73.3333 7.33331H66V14.6666H73.3333V7.33331Z" fill="white" fill-opacity="0.2"/>
    <path d="M88 7.33331H80.6667V14.6666H88V7.33331Z" fill="white" fill-opacity="0.2"/>
    <path d="M102.667 7.33331H95.3333V14.6666H102.667V7.33331Z" fill="white" fill-opacity="0.2"/>
    <path d="M117.333 7.33331H110V14.6666H117.333V7.33331Z" fill="white" fill-opacity="0.2"/>
    <path d="M132 7.33331H124.667V14.6666H132V7.33331Z" fill="white" fill-opacity="0.2"/>
    <path d="M146.667 7.33331H139.333V14.6666H146.667V7.33331Z" fill="white" fill-opacity="0.2"/>
    <path d="M161.333 7.33331H154V14.6666H161.333V7.33331Z" fill="white" fill-opacity="0.2"/>
    <path d="M176 7.33331H168.667V14.6666H176V7.33331Z" fill="white" fill-opacity="0.2"/>
    <path d="M190.667 7.33331H183.333V14.6666H190.667V7.33331Z" fill="white" fill-opacity="0.2"/>
    <path d="M22 14.6666H14.6667V22H22V14.6666Z" fill="white" fill-opacity="0.2"/>
    <path d="M36.6667 14.6666H29.3333V22H36.6667V14.6666Z" fill="white" fill-opacity="0.2"/>
    <path d="M51.3333 14.6666H44V22H51.3333V14.6666Z" fill="white" fill-opacity="0.2"/>
    <path d="M66 14.6666H58.6667V22H66V14.6666Z" fill="white" fill-opacity="0.2"/>
    <path d="M80.6667 14.6666H73.3333V22H80.6667V14.6666Z" fill="white" fill-opacity="0.2"/>
    <path d="M95.3333 14.6666H88V22H95.3333V14.6666Z" fill="white" fill-opacity="0.2"/>
    <path d="M110 14.6666H102.667V22H110V14.6666Z" fill="white" fill-opacity="0.2"/>
    <path d="M124.667 14.6666H117.333V22H124.667V14.6666Z" fill="white" fill-opacity="0.2"/>
    <path d="M139.333 14.6666H132V22H139.333V14.6666Z" fill="white" fill-opacity="0.2"/>
    <path d="M154 14.6666H146.667V22H154V14.6666Z" fill="white" fill-opacity="0.2"/>
    <path d="M168.667 14.6666H161.333V22H168.667V14.6666Z" fill="white" fill-opacity="0.2"/>
    <path d="M183.333 14.6666H176V22H183.333V14.6666Z" fill="white" fill-opacity="0.2"/>
    <path d="M374 0H366.667V7.33333H374V0Z" fill="white" fill-opacity="0.2"/>
    <path d="M388.667 0H381.333V7.33333H388.667V0Z" fill="white" fill-opacity="0.2"/>
    <path d="M403.333 0H396V7.33333H403.333V0Z" fill="white" fill-opacity="0.2"/>
    <path d="M418 0H410.667V7.33333H418V0Z" fill="white" fill-opacity="0.2"/>
    <path d="M432.667 0H425.333V7.33333H432.667V0Z" fill="white" fill-opacity="0.2"/>
    <path d="M447.333 0H440V7.33333H447.333V0Z" fill="white" fill-opacity="0.2"/>
    <path d="M462 0H454.667V7.33333H462V0Z" fill="white" fill-opacity="0.2"/>
    <path d="M476.667 0H469.333V7.33333H476.667V0Z" fill="white" fill-opacity="0.2"/>
    <path d="M491.333 0H484V7.33333H491.333V0Z" fill="white" fill-opacity="0.2"/>
    <path d="M506 0H498.667V7.33333H506V0Z" fill="white" fill-opacity="0.2"/>
    <path d="M381.333 7.33331H374V14.6666H381.333V7.33331Z" fill="white" fill-opacity="0.2"/>
    <path d="M396 7.33331H388.667V14.6666H396V7.33331Z" fill="white" fill-opacity="0.2"/>
    <path d="M410.667 7.33331H403.333V14.6666H410.667V7.33331Z" fill="white" fill-opacity="0.2"/>
    <path d="M425.333 7.33331H418V14.6666H425.333V7.33331Z" fill="white" fill-opacity="0.2"/>
    <path d="M440 7.33331H432.667V14.6666H440V7.33331Z" fill="white" fill-opacity="0.2"/>
    <path d="M454.667 7.33331H447.333V14.6666H454.667V7.33331Z" fill="white" fill-opacity="0.2"/>
    <path d="M469.333 7.33331H462V14.6666H469.333V7.33331Z" fill="white" fill-opacity="0.2"/>
    <path d="M484 7.33331H476.667V14.6666H484V7.33331Z" fill="white" fill-opacity="0.2"/>
    <path d="M498.667 7.33331H491.333V14.6666H498.667V7.33331Z" fill="white" fill-opacity="0.2"/>
    <path d="M513.333 7.33331H506V14.6666H513.333V7.33331Z" fill="white" fill-opacity="0.2"/>
    <path d="M374 14.6666H366.667V22H374V14.6666Z" fill="white" fill-opacity="0.2"/>
    <path d="M388.667 14.6666H381.333V22H388.667V14.6666Z" fill="white" fill-opacity="0.2"/>
    <path d="M403.333 14.6666H396V22H403.333V14.6666Z" fill="white" fill-opacity="0.2"/>
    <path d="M418 14.6666H410.667V22H418V14.6666Z" fill="white" fill-opacity="0.2"/>
    <path d="M432.667 14.6666H425.333V22H432.667V14.6666Z" fill="white" fill-opacity="0.2"/>
    <path d="M447.333 14.6666H440V22H447.333V14.6666Z" fill="white" fill-opacity="0.2"/>
    <path d="M462 14.6666H454.667V22H462V14.6666Z" fill="white" fill-opacity="0.2"/>
    <path d="M476.667 14.6666H469.333V22H476.667V14.6666Z" fill="white" fill-opacity="0.2"/>
    <path d="M491.333 14.6666H484V22H491.333V14.6666Z" fill="white" fill-opacity="0.2"/>
    <path d="M506 14.6666H498.667V22H506V14.6666Z" fill="white" fill-opacity="0.2"/>
    <path d="M520.667 0H513.333V7.33333H520.667V0Z" fill="white" fill-opacity="0.2"/>
    <path d="M528 7.33331H520.667V14.6666H528V7.33331Z" fill="white" fill-opacity="0.2"/>
    <path d="M520.667 14.6667H513.333V22H520.667V14.6667Z" fill="white" fill-opacity="0.2"/>
    <path d="M535.333 0H528V7.33333H535.333V0Z" fill="white" fill-opacity="0.2"/>
    <path d="M550 0H542.667V7.33333H550V0Z" fill="white" fill-opacity="0.2"/>
    <path d="M542.667 7.33331H535.333V14.6666H542.667V7.33331Z" fill="white" fill-opacity="0.2"/>
    <path d="M557.333 7.33331H550V14.6666H557.333V7.33331Z" fill="white" fill-opacity="0.2"/>
    <path d="M535.333 14.6667H528V22H535.333V14.6667Z" fill="white" fill-opacity="0.2"/>
    <path d="M550 14.6667H542.667V22H550V14.6667Z" fill="white" fill-opacity="0.2"/>
    <path d="M564.667 0H557.333V7.33333H564.667V0Z" fill="white" fill-opacity="0.2"/>
    <path d="M572 7.33331H564.667V14.6666H572V7.33331Z" fill="white" fill-opacity="0.2"/>
    <path d="M564.667 14.6667H557.333V22H564.667V14.6667Z" fill="white" fill-opacity="0.2"/>
    <path d="M579.333 0H572V7.33333H579.333V0Z" fill="white" fill-opacity="0.2"/>
    <path d="M579.333 14.6667H572V22H579.333V14.6667Z" fill="white" fill-opacity="0.2"/>
    </svg>
    