<svg width="1064" height="42" viewBox="0 0 1064 42" fill="none" xmlns="http://www.w3.org/2000/svg">
    <g clip-path="url(#clip0_16_857)">
    <path d="M14 0H0V14H14V0Z" fill="white" fill-opacity="0.2"/>
    <path d="M28 14H14V28H28V14Z" fill="white" fill-opacity="0.2"/>
    <path d="M14 28H0V42H14V28Z" fill="white" fill-opacity="0.2"/>
    <path d="M378 0H364V14H378V0Z" fill="white" fill-opacity="0.2"/>
    <path d="M406 0H392V14H406V0Z" fill="white" fill-opacity="0.2"/>
    <path d="M434 0H420V14H434V0Z" fill="white" fill-opacity="0.2"/>
    <path d="M462 0H448V14H462V0Z" fill="white" fill-opacity="0.2"/>
    <path d="M490 0H476V14H490V0Z" fill="white" fill-opacity="0.2"/>
    <path d="M518 0H504V14H518V0Z" fill="white" fill-opacity="0.2"/>
    <path d="M546 0H532V14H546V0Z" fill="white" fill-opacity="0.2"/>
    <path d="M574 0H560V14H574V0Z" fill="white" fill-opacity="0.2"/>
    <path d="M602 0H588V14H602V0Z" fill="white" fill-opacity="0.2"/>
    <path d="M630 0H616V14H630V0Z" fill="white" fill-opacity="0.2"/>
    <path d="M658 0H644V14H658V0Z" fill="white" fill-opacity="0.2"/>
    <path d="M686 0H672V14H686V0Z" fill="white" fill-opacity="0.2"/>
    <path d="M392 14H378V28H392V14Z" fill="white" fill-opacity="0.2"/>
    <path d="M420 14H406V28H420V14Z" fill="white" fill-opacity="0.2"/>
    <path d="M448 14H434V28H448V14Z" fill="white" fill-opacity="0.2"/>
    <path d="M476 14H462V28H476V14Z" fill="white" fill-opacity="0.2"/>
    <path d="M504 14H490V28H504V14Z" fill="white" fill-opacity="0.2"/>
    <path d="M532 14H518V28H532V14Z" fill="white" fill-opacity="0.2"/>
    <path d="M560 14H546V28H560V14Z" fill="white" fill-opacity="0.2"/>
    <path d="M588 14H574V28H588V14Z" fill="white" fill-opacity="0.2"/>
    <path d="M616 14H602V28H616V14Z" fill="white" fill-opacity="0.2"/>
    <path d="M644 14H630V28H644V14Z" fill="white" fill-opacity="0.2"/>
    <path d="M672 14H658V28H672V14Z" fill="white" fill-opacity="0.2"/>
    <path d="M700 14H686V28H700V14Z" fill="white" fill-opacity="0.2"/>
    <path d="M378 28H364V42H378V28Z" fill="white" fill-opacity="0.2"/>
    <path d="M406 28H392V42H406V28Z" fill="white" fill-opacity="0.2"/>
    <path d="M434 28H420V42H434V28Z" fill="white" fill-opacity="0.2"/>
    <path d="M462 28H448V42H462V28Z" fill="white" fill-opacity="0.2"/>
    <path d="M490 28H476V42H490V28Z" fill="white" fill-opacity="0.2"/>
    <path d="M518 28H504V42H518V28Z" fill="white" fill-opacity="0.2"/>
    <path d="M546 28H532V42H546V28Z" fill="white" fill-opacity="0.2"/>
    <path d="M574 27.9999H560V41.9999H574V27.9999Z" fill="white" fill-opacity="0.2"/>
    <path d="M602 27.9999H588V41.9999H602V27.9999Z" fill="white" fill-opacity="0.2"/>
    <path d="M630 27.9999H616V41.9999H630V27.9999Z" fill="white" fill-opacity="0.2"/>
    <path d="M658 27.9999H644V41.9999H658V27.9999Z" fill="white" fill-opacity="0.2"/>
    <path d="M686 27.9999H672V41.9999H686V27.9999Z" fill="white" fill-opacity="0.2"/>
    <path d="M42 0H28V14H42V0Z" fill="white" fill-opacity="0.2"/>
    <path d="M70 0H56V14H70V0Z" fill="white" fill-opacity="0.2"/>
    <path d="M98 0H84V14H98V0Z" fill="white" fill-opacity="0.2"/>
    <path d="M126 0H112V14H126V0Z" fill="white" fill-opacity="0.2"/>
    <path d="M154 0H140V14H154V0Z" fill="white" fill-opacity="0.2"/>
    <path d="M182 0H168V14H182V0Z" fill="white" fill-opacity="0.2"/>
    <path d="M210 0H196V14H210V0Z" fill="white" fill-opacity="0.2"/>
    <path d="M238 0H224V14H238V0Z" fill="white" fill-opacity="0.2"/>
    <path d="M266 0H252V14H266V0Z" fill="white" fill-opacity="0.2"/>
    <path d="M294 0H280V14H294V0Z" fill="white" fill-opacity="0.2"/>
    <path d="M322 0H308V14H322V0Z" fill="white" fill-opacity="0.2"/>
    <path d="M350 0H336V14H350V0Z" fill="white" fill-opacity="0.2"/>
    <path d="M56 14H42V28H56V14Z" fill="white" fill-opacity="0.2"/>
    <path d="M84 14H70V28H84V14Z" fill="white" fill-opacity="0.2"/>
    <path d="M112 14H98V28H112V14Z" fill="white" fill-opacity="0.2"/>
    <path d="M140 14H126V28H140V14Z" fill="white" fill-opacity="0.2"/>
    <path d="M168 14H154V28H168V14Z" fill="white" fill-opacity="0.2"/>
    <path d="M196 14H182V28H196V14Z" fill="white" fill-opacity="0.2"/>
    <path d="M224 14H210V28H224V14Z" fill="white" fill-opacity="0.2"/>
    <path d="M252 14H238V28H252V14Z" fill="white" fill-opacity="0.2"/>
    <path d="M280 14H266V28H280V14Z" fill="white" fill-opacity="0.2"/>
    <path d="M308 14H294V28H308V14Z" fill="white" fill-opacity="0.2"/>
    <path d="M336 14H322V28H336V14Z" fill="white" fill-opacity="0.2"/>
    <path d="M364 14H350V28H364V14Z" fill="white" fill-opacity="0.2"/>
    <path d="M42 28H28V42H42V28Z" fill="white" fill-opacity="0.2"/>
    <path d="M70 28H56V42H70V28Z" fill="white" fill-opacity="0.2"/>
    <path d="M98 28H84V42H98V28Z" fill="white" fill-opacity="0.2"/>
    <path d="M126 28H112V42H126V28Z" fill="white" fill-opacity="0.2"/>
    <path d="M154 28H140V42H154V28Z" fill="white" fill-opacity="0.2"/>
    <path d="M182 28H168V42H182V28Z" fill="white" fill-opacity="0.2"/>
    <path d="M210 28H196V42H210V28Z" fill="white" fill-opacity="0.2"/>
    <path d="M238 27.9999H224V41.9999H238V27.9999Z" fill="white" fill-opacity="0.2"/>
    <path d="M266 27.9999H252V41.9999H266V27.9999Z" fill="white" fill-opacity="0.2"/>
    <path d="M294 27.9999H280V41.9999H294V27.9999Z" fill="white" fill-opacity="0.2"/>
    <path d="M322 27.9999H308V41.9999H322V27.9999Z" fill="white" fill-opacity="0.2"/>
    <path d="M350 27.9999H336V41.9999H350V27.9999Z" fill="white" fill-opacity="0.2"/>
    <path d="M714 0H700V14H714V0Z" fill="white" fill-opacity="0.2"/>
    <path d="M742 0H728V14H742V0Z" fill="white" fill-opacity="0.2"/>
    <path d="M770 0H756V14H770V0Z" fill="white" fill-opacity="0.2"/>
    <path d="M798 0H784V14H798V0Z" fill="white" fill-opacity="0.2"/>
    <path d="M826 0H812V14H826V0Z" fill="white" fill-opacity="0.2"/>
    <path d="M854 0H840V14H854V0Z" fill="white" fill-opacity="0.2"/>
    <path d="M882 0H868V14H882V0Z" fill="white" fill-opacity="0.2"/>
    <path d="M910 0H896V14H910V0Z" fill="white" fill-opacity="0.2"/>
    <path d="M938 0H924V14H938V0Z" fill="white" fill-opacity="0.2"/>
    <path d="M966 0H952V14H966V0Z" fill="white" fill-opacity="0.2"/>
    <path d="M728 14H714V28H728V14Z" fill="white" fill-opacity="0.2"/>
    <path d="M756 14H742V28H756V14Z" fill="white" fill-opacity="0.2"/>
    <path d="M784 14H770V28H784V14Z" fill="white" fill-opacity="0.2"/>
    <path d="M812 14H798V28H812V14Z" fill="white" fill-opacity="0.2"/>
    <path d="M840 14H826V28H840V14Z" fill="white" fill-opacity="0.2"/>
    <path d="M868 14H854V28H868V14Z" fill="white" fill-opacity="0.2"/>
    <path d="M896 14H882V28H896V14Z" fill="white" fill-opacity="0.2"/>
    <path d="M924 14H910V28H924V14Z" fill="white" fill-opacity="0.2"/>
    <path d="M952 14H938V28H952V14Z" fill="white" fill-opacity="0.2"/>
    <path d="M980 14H966V28H980V14Z" fill="white" fill-opacity="0.2"/>
    <path d="M714 28H700V42H714V28Z" fill="white" fill-opacity="0.2"/>
    <path d="M742 28H728V42H742V28Z" fill="white" fill-opacity="0.2"/>
    <path d="M770 28H756V42H770V28Z" fill="white" fill-opacity="0.2"/>
    <path d="M798 28H784V42H798V28Z" fill="white" fill-opacity="0.2"/>
    <path d="M826 28H812V42H826V28Z" fill="white" fill-opacity="0.2"/>
    <path d="M854 28H840V42H854V28Z" fill="white" fill-opacity="0.2"/>
    <path d="M882 28H868V42H882V28Z" fill="white" fill-opacity="0.2"/>
    <path d="M910 27.9999H896V41.9999H910V27.9999Z" fill="white" fill-opacity="0.2"/>
    <path d="M938 27.9999H924V41.9999H938V27.9999Z" fill="white" fill-opacity="0.2"/>
    <path d="M966 27.9999H952V41.9999H966V27.9999Z" fill="white" fill-opacity="0.2"/>
    </g>
    <path d="M994 0H980V14H994V0Z" fill="white" fill-opacity="0.2"/>
    <path d="M1008 14H994V28H1008V14Z" fill="white" fill-opacity="0.2"/>
    <path d="M994 28H980V42H994V28Z" fill="white" fill-opacity="0.2"/>
    <path d="M1022 0H1008V14H1022V0Z" fill="white" fill-opacity="0.2"/>
    <path d="M1050 0H1036V14H1050V0Z" fill="white" fill-opacity="0.2"/>
    <path d="M1036 14H1022V28H1036V14Z" fill="white" fill-opacity="0.2"/>
    <path d="M1064 14H1050V28H1064V14Z" fill="white" fill-opacity="0.2"/>
    <path d="M1022 28H1008V42H1022V28Z" fill="white" fill-opacity="0.2"/>
    <path d="M1050 28H1036V42H1050V28Z" fill="white" fill-opacity="0.2"/>
    <defs>
    <clipPath id="clip0_16_857">
    <rect width="980" height="42" fill="white"/>
    </clipPath>
    </defs>
    </svg>
    