<svg width="980.000000" height="42.000000" viewBox="0 0 980 42" fill="none" xmlns="http://www.w3.org/2000/svg" xmlns:xlink="http://www.w3.org/1999/xlink">
	<desc>
			Created with Pixso.
	</desc>
	<defs/>
	<rect id="Rectangle 53" width="14.000002" height="14.000000" fill="#FFFFFF" fill-opacity="0.200000"/>
	<rect id="Rectangle 54" x="14.000000" y="13.999939" width="14.000002" height="14.000000" fill="#FFFFFF" fill-opacity="0.200000"/>
	<rect id="Rectangle 55" y="27.999939" width="14.000002" height="14.000000" fill="#FFFFFF" fill-opacity="0.200000"/>
	<rect id="Rectangle 1" x="364.000000" width="14.000002" height="14.000000" fill="#FFFFFF" fill-opacity="0.200000"/>
	<rect id="Rectangle 23" x="392.000000" width="14.000002" height="14.000000" fill="#FFFFFF" fill-opacity="0.200000"/>
	<rect id="Rectangle 26" x="420.000000" width="14.000002" height="14.000000" fill="#FFFFFF" fill-opacity="0.200000"/>
	<rect id="Rectangle 29" x="448.000000" width="14.000002" height="14.000000" fill="#FFFFFF" fill-opacity="0.200000"/>
	<rect id="Rectangle 32" x="476.000000" width="14.000002" height="14.000000" fill="#FFFFFF" fill-opacity="0.200000"/>
	<rect id="Rectangle 35" x="504.000000" width="14.000002" height="14.000000" fill="#FFFFFF" fill-opacity="0.200000"/>
	<rect id="Rectangle 38" x="532.000000" width="14.000002" height="14.000000" fill="#FFFFFF" fill-opacity="0.200000"/>
	<rect id="Rectangle 41" x="560.000000" width="14.000002" height="14.000000" fill="#FFFFFF" fill-opacity="0.200000"/>
	<rect id="Rectangle 44" x="588.000000" width="14.000002" height="14.000000" fill="#FFFFFF" fill-opacity="0.200000"/>
	<rect id="Rectangle 47" x="616.000000" width="14.000002" height="14.000000" fill="#FFFFFF" fill-opacity="0.200000"/>
	<rect id="Rectangle 50" x="644.000000" width="14.000002" height="14.000000" fill="#FFFFFF" fill-opacity="0.200000"/>
	<rect id="Rectangle 53" x="672.000000" width="14.000002" height="14.000000" fill="#FFFFFF" fill-opacity="0.200000"/>
	<rect id="Rectangle 2" x="378.000000" y="13.999939" width="14.000002" height="14.000000" fill="#FFFFFF" fill-opacity="0.200000"/>
	<rect id="Rectangle 24" x="406.000000" y="13.999939" width="14.000002" height="14.000000" fill="#FFFFFF" fill-opacity="0.200000"/>
	<rect id="Rectangle 27" x="434.000000" y="13.999939" width="14.000002" height="14.000000" fill="#FFFFFF" fill-opacity="0.200000"/>
	<rect id="Rectangle 30" x="462.000000" y="13.999939" width="14.000002" height="14.000000" fill="#FFFFFF" fill-opacity="0.200000"/>
	<rect id="Rectangle 33" x="490.000000" y="13.999939" width="14.000002" height="14.000000" fill="#FFFFFF" fill-opacity="0.200000"/>
	<rect id="Rectangle 36" x="518.000000" y="13.999939" width="14.000002" height="14.000000" fill="#FFFFFF" fill-opacity="0.200000"/>
	<rect id="Rectangle 39" x="546.000000" y="13.999939" width="14.000002" height="14.000000" fill="#FFFFFF" fill-opacity="0.200000"/>
	<rect id="Rectangle 42" x="574.000000" y="13.999939" width="14.000002" height="14.000000" fill="#FFFFFF" fill-opacity="0.200000"/>
	<rect id="Rectangle 45" x="602.000000" y="13.999939" width="14.000002" height="14.000000" fill="#FFFFFF" fill-opacity="0.200000"/>
	<rect id="Rectangle 48" x="630.000000" y="13.999939" width="14.000002" height="14.000000" fill="#FFFFFF" fill-opacity="0.200000"/>
	<rect id="Rectangle 51" x="658.000000" y="13.999939" width="14.000002" height="14.000000" fill="#FFFFFF" fill-opacity="0.200000"/>
	<rect id="Rectangle 54" x="686.000000" y="13.999939" width="14.000002" height="14.000000" fill="#FFFFFF" fill-opacity="0.200000"/>
	<rect id="Rectangle 4" x="364.000000" y="27.999939" width="14.000002" height="14.000000" fill="#FFFFFF" fill-opacity="0.200000"/>
	<rect id="Rectangle 25" x="392.000000" y="27.999939" width="14.000002" height="14.000000" fill="#FFFFFF" fill-opacity="0.200000"/>
	<rect id="Rectangle 28" x="420.000000" y="27.999939" width="14.000002" height="14.000000" fill="#FFFFFF" fill-opacity="0.200000"/>
	<rect id="Rectangle 31" x="448.000000" y="27.999939" width="14.000002" height="14.000000" fill="#FFFFFF" fill-opacity="0.200000"/>
	<rect id="Rectangle 34" x="476.000000" y="27.999939" width="14.000002" height="14.000000" fill="#FFFFFF" fill-opacity="0.200000"/>
	<rect id="Rectangle 37" x="504.000000" y="27.999939" width="14.000002" height="14.000000" fill="#FFFFFF" fill-opacity="0.200000"/>
	<rect id="Rectangle 40" x="532.000000" y="27.999939" width="14.000002" height="14.000000" fill="#FFFFFF" fill-opacity="0.200000"/>
	<rect id="Rectangle 43" x="560.000000" y="27.999878" width="14.000002" height="14.000000" fill="#FFFFFF" fill-opacity="0.200000"/>
	<rect id="Rectangle 46" x="588.000000" y="27.999878" width="14.000002" height="14.000000" fill="#FFFFFF" fill-opacity="0.200000"/>
	<rect id="Rectangle 49" x="616.000000" y="27.999878" width="14.000002" height="14.000000" fill="#FFFFFF" fill-opacity="0.200000"/>
	<rect id="Rectangle 52" x="644.000000" y="27.999878" width="14.000002" height="14.000000" fill="#FFFFFF" fill-opacity="0.200000"/>
	<rect id="Rectangle 55" x="672.000000" y="27.999878" width="14.000002" height="14.000000" fill="#FFFFFF" fill-opacity="0.200000"/>
	<rect id="Rectangle 1" x="28.000000" width="14.000002" height="14.000000" fill="#FFFFFF" fill-opacity="0.200000"/>
	<rect id="Rectangle 23" x="56.000000" width="14.000002" height="14.000000" fill="#FFFFFF" fill-opacity="0.200000"/>
	<rect id="Rectangle 26" x="84.000000" width="14.000002" height="14.000000" fill="#FFFFFF" fill-opacity="0.200000"/>
	<rect id="Rectangle 29" x="112.000000" width="14.000002" height="14.000000" fill="#FFFFFF" fill-opacity="0.200000"/>
	<rect id="Rectangle 32" x="140.000000" width="14.000002" height="14.000000" fill="#FFFFFF" fill-opacity="0.200000"/>
	<rect id="Rectangle 35" x="168.000000" width="14.000002" height="14.000000" fill="#FFFFFF" fill-opacity="0.200000"/>
	<rect id="Rectangle 38" x="196.000000" width="14.000002" height="14.000000" fill="#FFFFFF" fill-opacity="0.200000"/>
	<rect id="Rectangle 41" x="224.000000" width="14.000002" height="14.000000" fill="#FFFFFF" fill-opacity="0.200000"/>
	<rect id="Rectangle 44" x="252.000000" width="14.000002" height="14.000000" fill="#FFFFFF" fill-opacity="0.200000"/>
	<rect id="Rectangle 47" x="280.000000" width="14.000002" height="14.000000" fill="#FFFFFF" fill-opacity="0.200000"/>
	<rect id="Rectangle 50" x="308.000000" width="14.000002" height="14.000000" fill="#FFFFFF" fill-opacity="0.200000"/>
	<rect id="Rectangle 53" x="336.000000" width="14.000002" height="14.000000" fill="#FFFFFF" fill-opacity="0.200000"/>
	<rect id="Rectangle 2" x="42.000000" y="13.999939" width="14.000002" height="14.000000" fill="#FFFFFF" fill-opacity="0.200000"/>
	<rect id="Rectangle 24" x="70.000000" y="13.999939" width="14.000002" height="14.000000" fill="#FFFFFF" fill-opacity="0.200000"/>
	<rect id="Rectangle 27" x="98.000000" y="13.999939" width="14.000002" height="14.000000" fill="#FFFFFF" fill-opacity="0.200000"/>
	<rect id="Rectangle 30" x="126.000000" y="13.999939" width="14.000002" height="14.000000" fill="#FFFFFF" fill-opacity="0.200000"/>
	<rect id="Rectangle 33" x="154.000000" y="13.999939" width="14.000002" height="14.000000" fill="#FFFFFF" fill-opacity="0.200000"/>
	<rect id="Rectangle 36" x="182.000000" y="13.999939" width="14.000002" height="14.000000" fill="#FFFFFF" fill-opacity="0.200000"/>
	<rect id="Rectangle 39" x="210.000000" y="13.999939" width="14.000002" height="14.000000" fill="#FFFFFF" fill-opacity="0.200000"/>
	<rect id="Rectangle 42" x="238.000000" y="13.999939" width="14.000002" height="14.000000" fill="#FFFFFF" fill-opacity="0.200000"/>
	<rect id="Rectangle 45" x="266.000000" y="13.999939" width="14.000002" height="14.000000" fill="#FFFFFF" fill-opacity="0.200000"/>
	<rect id="Rectangle 48" x="294.000000" y="13.999939" width="14.000002" height="14.000000" fill="#FFFFFF" fill-opacity="0.200000"/>
	<rect id="Rectangle 51" x="322.000000" y="13.999939" width="14.000002" height="14.000000" fill="#FFFFFF" fill-opacity="0.200000"/>
	<rect id="Rectangle 54" x="350.000000" y="13.999939" width="14.000002" height="14.000000" fill="#FFFFFF" fill-opacity="0.200000"/>
	<rect id="Rectangle 4" x="28.000000" y="27.999939" width="14.000002" height="14.000000" fill="#FFFFFF" fill-opacity="0.200000"/>
	<rect id="Rectangle 25" x="56.000000" y="27.999939" width="14.000002" height="14.000000" fill="#FFFFFF" fill-opacity="0.200000"/>
	<rect id="Rectangle 28" x="84.000000" y="27.999939" width="14.000002" height="14.000000" fill="#FFFFFF" fill-opacity="0.200000"/>
	<rect id="Rectangle 31" x="112.000000" y="27.999939" width="14.000002" height="14.000000" fill="#FFFFFF" fill-opacity="0.200000"/>
	<rect id="Rectangle 34" x="140.000000" y="27.999939" width="14.000002" height="14.000000" fill="#FFFFFF" fill-opacity="0.200000"/>
	<rect id="Rectangle 37" x="168.000000" y="27.999939" width="14.000002" height="14.000000" fill="#FFFFFF" fill-opacity="0.200000"/>
	<rect id="Rectangle 40" x="196.000000" y="27.999939" width="14.000002" height="14.000000" fill="#FFFFFF" fill-opacity="0.200000"/>
	<rect id="Rectangle 43" x="224.000000" y="27.999878" width="14.000002" height="14.000000" fill="#FFFFFF" fill-opacity="0.200000"/>
	<rect id="Rectangle 46" x="252.000000" y="27.999878" width="14.000002" height="14.000000" fill="#FFFFFF" fill-opacity="0.200000"/>
	<rect id="Rectangle 49" x="280.000000" y="27.999878" width="14.000002" height="14.000000" fill="#FFFFFF" fill-opacity="0.200000"/>
	<rect id="Rectangle 52" x="308.000000" y="27.999878" width="14.000002" height="14.000000" fill="#FFFFFF" fill-opacity="0.200000"/>
	<rect id="Rectangle 55" x="336.000000" y="27.999878" width="14.000002" height="14.000000" fill="#FFFFFF" fill-opacity="0.200000"/>
	<rect id="Rectangle 1" x="700.000000" width="14.000002" height="14.000000" fill="#FFFFFF" fill-opacity="0.200000"/>
	<rect id="Rectangle 23" x="728.000000" width="14.000002" height="14.000000" fill="#FFFFFF" fill-opacity="0.200000"/>
	<rect id="Rectangle 26" x="756.000000" width="14.000002" height="14.000000" fill="#FFFFFF" fill-opacity="0.200000"/>
	<rect id="Rectangle 29" x="784.000000" width="14.000002" height="14.000000" fill="#FFFFFF" fill-opacity="0.200000"/>
	<rect id="Rectangle 32" x="812.000000" width="14.000002" height="14.000000" fill="#FFFFFF" fill-opacity="0.200000"/>
	<rect id="Rectangle 35" x="840.000000" width="14.000002" height="14.000000" fill="#FFFFFF" fill-opacity="0.200000"/>
	<rect id="Rectangle 38" x="868.000000" width="14.000002" height="14.000000" fill="#FFFFFF" fill-opacity="0.200000"/>
	<rect id="Rectangle 41" x="896.000000" width="14.000002" height="14.000000" fill="#FFFFFF" fill-opacity="0.200000"/>
	<rect id="Rectangle 44" x="924.000000" width="14.000002" height="14.000000" fill="#FFFFFF" fill-opacity="0.200000"/>
	<rect id="Rectangle 47" x="952.000000" width="14.000002" height="14.000000" fill="#FFFFFF" fill-opacity="0.200000"/>
	<rect id="Rectangle 2" x="714.000000" y="13.999939" width="14.000002" height="14.000000" fill="#FFFFFF" fill-opacity="0.200000"/>
	<rect id="Rectangle 24" x="742.000000" y="13.999939" width="14.000002" height="14.000000" fill="#FFFFFF" fill-opacity="0.200000"/>
	<rect id="Rectangle 27" x="770.000000" y="13.999939" width="14.000002" height="14.000000" fill="#FFFFFF" fill-opacity="0.200000"/>
	<rect id="Rectangle 30" x="798.000000" y="13.999939" width="14.000002" height="14.000000" fill="#FFFFFF" fill-opacity="0.200000"/>
	<rect id="Rectangle 33" x="826.000000" y="13.999939" width="14.000002" height="14.000000" fill="#FFFFFF" fill-opacity="0.200000"/>
	<rect id="Rectangle 36" x="854.000000" y="13.999939" width="14.000002" height="14.000000" fill="#FFFFFF" fill-opacity="0.200000"/>
	<rect id="Rectangle 39" x="882.000000" y="13.999939" width="14.000002" height="14.000000" fill="#FFFFFF" fill-opacity="0.200000"/>
	<rect id="Rectangle 42" x="910.000000" y="13.999939" width="14.000002" height="14.000000" fill="#FFFFFF" fill-opacity="0.200000"/>
	<rect id="Rectangle 45" x="938.000000" y="13.999939" width="14.000002" height="14.000000" fill="#FFFFFF" fill-opacity="0.200000"/>
	<rect id="Rectangle 48" x="966.000000" y="13.999939" width="14.000002" height="14.000000" fill="#FFFFFF" fill-opacity="0.200000"/>
	<rect id="Rectangle 4" x="700.000000" y="27.999939" width="14.000002" height="14.000000" fill="#FFFFFF" fill-opacity="0.200000"/>
	<rect id="Rectangle 25" x="728.000000" y="27.999939" width="14.000002" height="14.000000" fill="#FFFFFF" fill-opacity="0.200000"/>
	<rect id="Rectangle 28" x="756.000000" y="27.999939" width="14.000002" height="14.000000" fill="#FFFFFF" fill-opacity="0.200000"/>
	<rect id="Rectangle 31" x="784.000000" y="27.999939" width="14.000002" height="14.000000" fill="#FFFFFF" fill-opacity="0.200000"/>
	<rect id="Rectangle 34" x="812.000000" y="27.999939" width="14.000002" height="14.000000" fill="#FFFFFF" fill-opacity="0.200000"/>
	<rect id="Rectangle 37" x="840.000000" y="27.999939" width="14.000002" height="14.000000" fill="#FFFFFF" fill-opacity="0.200000"/>
	<rect id="Rectangle 40" x="868.000000" y="27.999939" width="14.000002" height="14.000000" fill="#FFFFFF" fill-opacity="0.200000"/>
	<rect id="Rectangle 43" x="896.000000" y="27.999878" width="14.000002" height="14.000000" fill="#FFFFFF" fill-opacity="0.200000"/>
	<rect id="Rectangle 46" x="924.000000" y="27.999878" width="14.000002" height="14.000000" fill="#FFFFFF" fill-opacity="0.200000"/>
	<rect id="Rectangle 49" x="952.000000" y="27.999878" width="14.000002" height="14.000000" fill="#FFFFFF" fill-opacity="0.200000"/>
</svg>
