<svg width="24.000000" height="24.000000" viewBox="0 0 24 24" fill="none" xmlns="http://www.w3.org/2000/svg" xmlns:xlink="http://www.w3.org/1999/xlink">
	<desc>
			Created with Pixso.
	</desc>
	<defs/>
	<path id="Vector" d="M4.25 6.75C4.25 9.32 6.26 11.4 8.88 11.49C8.96 11.48 9.03 11.48 9.09 11.49C9.12 11.49 9.13 11.49 9.15 11.49C9.15 11.49 9.15 11.49 9.16 11.49C11.73 11.4 13.74 9.32 13.75 6.75C13.75 4.13 11.62 2 9 2C6.38 2 4.25 4.13 4.25 6.75Z" fill="#212529" fill-opacity="1.000000" fill-rule="nonzero"/>
	<path id="Vector" d="M3.93 14.14C2.66 14.99 1.96 16.14 1.96 17.37C1.96 18.6 2.66 19.74 3.92 20.58C5.32 21.52 7.16 21.99 9 21.99C10.84 21.99 12.68 21.52 14.08 20.58C15.34 19.73 16.04 18.59 16.04 17.35C16.03 16.12 15.34 14.98 14.08 14.14C11.29 12.28 6.74 12.28 3.93 14.14Z" fill="#212529" fill-opacity="1.000000" fill-rule="nonzero"/>
	<path id="Vector" d="M16.85 11.2C16.84 11.2 16.84 11.2 16.83 11.2L16.8 11.2C16.74 11.2 16.68 11.2 16.63 11.22C15.66 11.27 14.77 10.96 14.1 10.39C15.13 9.47 15.72 8.09 15.6 6.59C15.53 5.78 15.25 5.04 14.83 4.41C15.21 4.22 15.65 4.1 16.1 4.06C18.06 3.89 19.81 5.35 19.98 7.33C20.14 9.27 18.76 10.97 16.85 11.2Z" fill="#212529" fill-opacity="1.000000" fill-rule="nonzero"/>
	<path id="Vector" d="M20.24 18.97C19.24 19.52 17.98 19.78 16.73 19.75C17.45 19.1 17.87 18.29 17.95 17.43C18.05 16.19 17.46 15 16.28 14.05C15.61 13.52 14.83 13.1 13.98 12.79C16.19 12.15 18.97 12.58 20.68 13.96C21.6 14.7 22.07 15.63 21.98 16.59C21.9 17.56 21.28 18.4 20.24 18.97Z" fill="#212529" fill-opacity="1.000000" fill-rule="nonzero"/>
	<g opacity="0.000100"/>
</svg>
