<svg width="42" height="686" viewBox="0 0 42 686" fill="none" xmlns="http://www.w3.org/2000/svg">
    <rect x="41.9999" width="14" height="14" transform="rotate(90 41.9999 0)" fill="white" fill-opacity="0.2"/>
    <rect x="41.9999" y="28" width="14" height="14" transform="rotate(90 41.9999 28)" fill="white" fill-opacity="0.2"/>
    <rect x="41.9999" y="56" width="14" height="14" transform="rotate(90 41.9999 56)" fill="white" fill-opacity="0.2"/>
    <rect x="41.9999" y="84" width="14" height="14" transform="rotate(90 41.9999 84)" fill="white" fill-opacity="0.2"/>
    <rect x="41.9999" y="112" width="14" height="14" transform="rotate(90 41.9999 112)" fill="white" fill-opacity="0.2"/>
    <rect x="41.9999" y="140" width="14" height="14" transform="rotate(90 41.9999 140)" fill="white" fill-opacity="0.2"/>
    <rect x="41.9999" y="168" width="14" height="14" transform="rotate(90 41.9999 168)" fill="white" fill-opacity="0.2"/>
    <rect x="41.9999" y="196" width="14" height="14" transform="rotate(90 41.9999 196)" fill="white" fill-opacity="0.2"/>
    <rect x="41.9999" y="224" width="14" height="14" transform="rotate(90 41.9999 224)" fill="white" fill-opacity="0.2"/>
    <rect x="41.9999" y="252" width="14" height="14" transform="rotate(90 41.9999 252)" fill="white" fill-opacity="0.2"/>
    <rect x="41.9999" y="280" width="14" height="14" transform="rotate(90 41.9999 280)" fill="white" fill-opacity="0.2"/>
    <rect x="41.9999" y="308" width="14" height="14" transform="rotate(90 41.9999 308)" fill="white" fill-opacity="0.2"/>
    <rect x="41.9999" y="336" width="14" height="14" transform="rotate(90 41.9999 336)" fill="white" fill-opacity="0.2"/>
    <rect x="27.9999" y="14" width="14" height="14" transform="rotate(90 27.9999 14)" fill="white" fill-opacity="0.2"/>
    <rect x="27.9999" y="42" width="14" height="14" transform="rotate(90 27.9999 42)" fill="white" fill-opacity="0.2"/>
    <rect x="27.9999" y="70" width="14" height="14" transform="rotate(90 27.9999 70)" fill="white" fill-opacity="0.2"/>
    <rect x="27.9999" y="98" width="14" height="14" transform="rotate(90 27.9999 98)" fill="white" fill-opacity="0.2"/>
    <rect x="27.9999" y="126" width="14" height="14" transform="rotate(90 27.9999 126)" fill="white" fill-opacity="0.2"/>
    <rect x="27.9999" y="154" width="14" height="14" transform="rotate(90 27.9999 154)" fill="white" fill-opacity="0.2"/>
    <rect x="27.9999" y="182" width="14" height="14" transform="rotate(90 27.9999 182)" fill="white" fill-opacity="0.2"/>
    <rect x="27.9999" y="210" width="14" height="14" transform="rotate(90 27.9999 210)" fill="white" fill-opacity="0.2"/>
    <rect x="27.9999" y="238" width="14" height="14" transform="rotate(90 27.9999 238)" fill="white" fill-opacity="0.2"/>
    <rect x="27.9999" y="266" width="14" height="14" transform="rotate(90 27.9999 266)" fill="white" fill-opacity="0.2"/>
    <rect x="27.9999" y="294" width="14" height="14" transform="rotate(90 27.9999 294)" fill="white" fill-opacity="0.2"/>
    <rect x="27.9999" y="322" width="14" height="14" transform="rotate(90 27.9999 322)" fill="white" fill-opacity="0.2"/>
    <rect x="14" width="14" height="14" transform="rotate(90 14 0)" fill="white" fill-opacity="0.2"/>
    <rect x="14" y="28" width="14" height="14" transform="rotate(90 14 28)" fill="white" fill-opacity="0.2"/>
    <rect x="14" y="56" width="14" height="14" transform="rotate(90 14 56)" fill="white" fill-opacity="0.2"/>
    <rect x="14" y="84" width="14" height="14" transform="rotate(90 14 84)" fill="white" fill-opacity="0.2"/>
    <rect x="14" y="112" width="14" height="14" transform="rotate(90 14 112)" fill="white" fill-opacity="0.2"/>
    <rect x="14" y="140" width="14" height="14" transform="rotate(90 14 140)" fill="white" fill-opacity="0.2"/>
    <rect x="14" y="168" width="14" height="14" transform="rotate(90 14 168)" fill="white" fill-opacity="0.2"/>
    <rect x="14" y="196" width="14" height="14" transform="rotate(90 14 196)" fill="white" fill-opacity="0.2"/>
    <rect x="14" y="224" width="14" height="14" transform="rotate(90 14 224)" fill="white" fill-opacity="0.2"/>
    <rect x="14" y="252" width="14" height="14" transform="rotate(90 14 252)" fill="white" fill-opacity="0.2"/>
    <rect x="14" y="280" width="14" height="14" transform="rotate(90 14 280)" fill="white" fill-opacity="0.2"/>
    <rect x="14" y="308" width="14" height="14" transform="rotate(90 14 308)" fill="white" fill-opacity="0.2"/>
    <rect x="14" y="336" width="14" height="14" transform="rotate(90 14 336)" fill="white" fill-opacity="0.2"/>
    <rect x="41.9999" y="364" width="14" height="14" transform="rotate(90 41.9999 364)" fill="white" fill-opacity="0.2"/>
    <rect x="41.9999" y="392" width="14" height="14" transform="rotate(90 41.9999 392)" fill="white" fill-opacity="0.2"/>
    <rect x="41.9999" y="420" width="14" height="14" transform="rotate(90 41.9999 420)" fill="white" fill-opacity="0.2"/>
    <rect x="41.9999" y="448" width="14" height="14" transform="rotate(90 41.9999 448)" fill="white" fill-opacity="0.2"/>
    <rect x="41.9999" y="476" width="14" height="14" transform="rotate(90 41.9999 476)" fill="white" fill-opacity="0.2"/>
    <rect x="41.9999" y="504" width="14" height="14" transform="rotate(90 41.9999 504)" fill="white" fill-opacity="0.2"/>
    <rect x="41.9999" y="532" width="14" height="14" transform="rotate(90 41.9999 532)" fill="white" fill-opacity="0.2"/>
    <rect x="41.9999" y="560" width="14" height="14" transform="rotate(90 41.9999 560)" fill="white" fill-opacity="0.2"/>
    <rect x="41.9999" y="588" width="14" height="14" transform="rotate(90 41.9999 588)" fill="white" fill-opacity="0.2"/>
    <rect x="41.9999" y="616" width="14" height="14" transform="rotate(90 41.9999 616)" fill="white" fill-opacity="0.2"/>
    <rect x="41.9999" y="644" width="14" height="14" transform="rotate(90 41.9999 644)" fill="white" fill-opacity="0.2"/>
    <rect x="41.9999" y="672" width="14" height="14" transform="rotate(90 41.9999 672)" fill="white" fill-opacity="0.2"/>
    <rect x="28" y="350" width="14" height="14" transform="rotate(90 28 350)" fill="white" fill-opacity="0.2"/>
    <rect x="28" y="378" width="14" height="14" transform="rotate(90 28 378)" fill="white" fill-opacity="0.2"/>
    <rect x="28" y="406" width="14" height="14" transform="rotate(90 28 406)" fill="white" fill-opacity="0.2"/>
    <rect x="28" y="434" width="14" height="14" transform="rotate(90 28 434)" fill="white" fill-opacity="0.2"/>
    <rect x="28" y="462" width="14" height="14" transform="rotate(90 28 462)" fill="white" fill-opacity="0.2"/>
    <rect x="28" y="490" width="14" height="14" transform="rotate(90 28 490)" fill="white" fill-opacity="0.2"/>
    <rect x="28" y="518" width="14" height="14" transform="rotate(90 28 518)" fill="white" fill-opacity="0.2"/>
    <rect x="28" y="546" width="14" height="14" transform="rotate(90 28 546)" fill="white" fill-opacity="0.2"/>
    <rect x="28" y="574" width="14" height="14" transform="rotate(90 28 574)" fill="white" fill-opacity="0.2"/>
    <rect x="28" y="602" width="14" height="14" transform="rotate(90 28 602)" fill="white" fill-opacity="0.2"/>
    <rect x="28" y="630" width="14" height="14" transform="rotate(90 28 630)" fill="white" fill-opacity="0.2"/>
    <rect x="28" y="658" width="14" height="14" transform="rotate(90 28 658)" fill="white" fill-opacity="0.2"/>
    <rect x="14" y="364" width="14" height="14" transform="rotate(90 14 364)" fill="white" fill-opacity="0.2"/>
    <rect x="14" y="392" width="14" height="14" transform="rotate(90 14 392)" fill="white" fill-opacity="0.2"/>
    <rect x="14" y="420" width="14" height="14" transform="rotate(90 14 420)" fill="white" fill-opacity="0.2"/>
    <rect x="14" y="448" width="14" height="14" transform="rotate(90 14 448)" fill="white" fill-opacity="0.2"/>
    <rect x="14" y="476" width="14" height="14" transform="rotate(90 14 476)" fill="white" fill-opacity="0.2"/>
    <rect x="14" y="504" width="14" height="14" transform="rotate(90 14 504)" fill="white" fill-opacity="0.2"/>
    <rect x="14" y="532" width="14" height="14" transform="rotate(90 14 532)" fill="white" fill-opacity="0.2"/>
    <rect x="14" y="560" width="14" height="14" transform="rotate(90 14 560)" fill="white" fill-opacity="0.2"/>
    <rect x="14" y="588" width="14" height="14" transform="rotate(90 14 588)" fill="white" fill-opacity="0.2"/>
    <rect x="14" y="616" width="14" height="14" transform="rotate(90 14 616)" fill="white" fill-opacity="0.2"/>
    <rect x="14" y="644" width="14" height="14" transform="rotate(90 14 644)" fill="white" fill-opacity="0.2"/>
    <rect x="14" y="672" width="14" height="14" transform="rotate(90 14 672)" fill="white" fill-opacity="0.2"/>
    </svg>
    