<svg width="25" height="24" viewBox="0 0 25 24" fill="none" xmlns="http://www.w3.org/2000/svg">
    <path d="M10.1498 2C9.10977 2 8.25977 2.84 8.25977 3.88V4.82C8.25977 5.86 9.09977 6.7 10.1398 6.7H14.8498C15.8898 6.7 16.7298 5.86 16.7298 4.82V3.88C16.7398 2.84 15.8898 2 14.8498 2H10.1498Z" fill="white"/>
    <path fill-rule="evenodd" clip-rule="evenodd" d="M14.8491 7.70949H10.1491C8.55906 7.70949 7.25906 6.40949 7.25906 4.81949C7.25906 4.25949 6.65906 3.90949 6.15906 4.16949C4.74906 4.91949 3.78906 6.40949 3.78906 8.11949V17.5295C3.78906 19.9895 5.79906 21.9995 8.25906 21.9995H16.7391C19.1991 21.9995 21.2091 19.9895 21.2091 17.5295V8.11949C21.2091 6.40949 20.2491 4.91949 18.8391 4.16949C18.3391 3.90949 17.7391 4.25949 17.7391 4.81949C17.7391 6.40949 16.4391 7.70949 14.8491 7.70949ZM11.8391 16.7295C11.6891 16.8795 11.4991 16.9495 11.3091 16.9495C11.1191 16.9495 10.9291 16.8795 10.7791 16.7295L9.27906 15.2295C8.98906 14.9395 8.98906 14.4595 9.27906 14.1695C9.56906 13.8795 10.0491 13.8795 10.3391 14.1695L11.3091 15.1395L14.7791 11.6695C15.0691 11.3795 15.5491 11.3795 15.8391 11.6695C16.1291 11.9595 16.1291 12.4395 15.8391 12.7295L11.8391 16.7295Z" fill="white"/>
    </svg>
    