<svg width="24.000000" height="24.000000" viewBox="0 0 24 24" fill="none" xmlns="http://www.w3.org/2000/svg" xmlns:xlink="http://www.w3.org/1999/xlink">
		<defs/>
	<g opacity="0.000100"/>
	<path id="Vector" d="M14.85 7.75L13.35 7.75L13.35 3.95C13.35 3.68 13.11 3.55 12.95 3.55C12.89 3.55 12.85 3.56 12.8 3.58L4.87 6.57C4.34 6.77 4 7.27 4 7.84L4 8.51C3.09 9.19 2.5 10.28 2.5 11.51L2.5 7.84C2.5 6.65 3.22 5.59 4.34 5.17L12.28 2.17C12.5 2.09 12.73 2.05 12.95 2.05C13.95 2.05 14.85 2.86 14.85 3.95L14.85 7.75Z" fill="#FFFFFF" fill-opacity="1.000000" fill-rule="nonzero"/>
	<path id="Vector" d="M21.5 15.5C21.5 15.77 21.29 15.99 21.01 16L19.55 16C19.02 16 18.54 15.61 18.5 15.09C18.47 14.78 18.59 14.49 18.79 14.29C18.97 14.1 19.22 14 19.49 14L21 14C21.29 14.01 21.5 14.23 21.5 14.5L21.5 15.5Z" fill="#FFFFFF" fill-opacity="1.000000" fill-rule="nonzero"/>
	<path id="Vector" d="M20.5 12.95C21.05 12.95 21.5 12.5 21.5 11.95L21.5 11.51C21.5 9.44 19.8101 7.75 17.74 7.75L6.26001 7.75C5.40991 7.75 4.62988 8.03 4 8.50999C3.09009 9.19 2.5 10.28 2.5 11.51L2.5 18.24C2.5 20.31 4.18994 22 6.26001 22L17.74 22C19.8101 22 21.5 20.31 21.5 18.24L21.5 18.05C21.5 17.5 21.05 17.05 20.5 17.05L19.6299 17.05C18.6699 17.05 17.75 16.46 17.5 15.53C17.29 14.77 17.54 14.04 18.04 13.55C18.4099 13.17 18.9199 12.95 19.48 12.95L20.5 12.95ZM6.25 12C6.25 12.41 6.59009 12.75 7 12.75L14 12.75C14.4099 12.75 14.75 12.41 14.75 12C14.75 11.59 14.4099 11.25 14 11.25L7 11.25C6.59009 11.25 6.25 11.59 6.25 12Z" clip-rule="evenodd" fill="#FFFFFF" fill-opacity="1.000000" fill-rule="evenodd"/>
</svg>
